<?xml version="1.0" encoding="UTF-8"?>
<svg xmlns="http://www.w3.org/2000/svg" viewBox="0 0 1100 520" width="1100" height="520" role="img" aria-labelledby="title desc">
  <title id="title">Agent orchestration swimlanes</title>
  <desc id="desc">Editorial diagram for the AI industry blog. Generic public concepts only.</desc>
  <defs>
    <style>
      .t-title { font: 600 26px Georgia, 'Times New Roman', serif; fill: #141414; }
      .t-sub { font: 400 14px system-ui, -apple-system, 'Segoe UI', sans-serif; fill: #5C574F; }
      .t-year { font: 700 13px system-ui, sans-serif; fill: #1E4D6B; }
      .t-label { font: 600 12px system-ui, sans-serif; fill: #141414; }
      .t-body { font: 400 11.5px system-ui, sans-serif; fill: #5C574F; }
      .t-small { font: 400 10px system-ui, sans-serif; fill: #8A847A; }
      .t-card-title { font: 600 13px system-ui, sans-serif; fill: #141414; }
    </style>
    <filter id="shadow" x="-4%" y="-4%" width="108%" height="108%">
      <feDropShadow dx="0" dy="2" stdDeviation="3" flood-color="#141414" flood-opacity="0.08"/>
    </filter>
    <marker id="arrow" markerWidth="8" markerHeight="8" refX="6" refY="3" orient="auto">
      <path d="M0,0 L6,3 L0,6 Z" fill="#1E4D6B"/>
    </marker>
  </defs>
  <rect width="100%" height="100%" fill="#FAF8F5"/>
  <text x="48" y="38" class="t-title">Agent orchestration swimlanes</text>
  <text x="48" y="62" class="t-sub">Who does what in a multi-step workflow (conceptual)</text>
  <line x1="48" y1="74" x2="1052" y2="74" stroke="#E3DDD4"/>
  <rect x="48" y="92" width="140" height="89" rx="6" fill="#D4E4ED" stroke="#E3DDD4"/>
  <text x="118.0" y="140.5" text-anchor="middle" class="t-label">User</text>
  <line x1="200" y1="136.5" x2="1052" y2="136.5" stroke="#E3DDD4" stroke-dasharray="4 4"/>
  <rect x="212" y="104" width="400" height="65" rx="6" fill="#FFFFFF" stroke="#E3DDD4" filter="url(#shadow)"/>
  <text x="412.0" y="144.5" text-anchor="middle" class="t-body">Goal</text>
  <line x1="612" y1="140.5" x2="624" y2="140.5" stroke="#1E4D6B" marker-end="url(#arrow)"/>
  <rect x="628" y="104" width="400" height="65" rx="6" fill="#FFFFFF" stroke="#E3DDD4" filter="url(#shadow)"/>
  <text x="828.0" y="144.5" text-anchor="middle" class="t-body">Approve</text>
  <rect x="48" y="189" width="140" height="89" rx="6" fill="#D4E4ED" stroke="#E3DDD4"/>
  <text x="118.0" y="237.5" text-anchor="middle" class="t-label">Orchestrator</text>
  <line x1="200" y1="233.5" x2="1052" y2="233.5" stroke="#E3DDD4" stroke-dasharray="4 4"/>
  <rect x="212" y="201" width="261" height="65" rx="6" fill="#FFFFFF" stroke="#E3DDD4" filter="url(#shadow)"/>
  <text x="342.5" y="241.5" text-anchor="middle" class="t-body">Plan</text>
  <line x1="473" y1="237.5" x2="485" y2="237.5" stroke="#1E4D6B" marker-end="url(#arrow)"/>
  <rect x="489" y="201" width="261" height="65" rx="6" fill="#FFFFFF" stroke="#E3DDD4" filter="url(#shadow)"/>
  <text x="619.5" y="241.5" text-anchor="middle" class="t-body">Route</text>
  <line x1="750" y1="237.5" x2="762" y2="237.5" stroke="#1E4D6B" marker-end="url(#arrow)"/>
  <rect x="766" y="201" width="261" height="65" rx="6" fill="#FFFFFF" stroke="#E3DDD4" filter="url(#shadow)"/>
  <text x="896.5" y="241.5" text-anchor="middle" class="t-body">Summarize</text>
  <rect x="48" y="286" width="140" height="89" rx="6" fill="#D4E4ED" stroke="#E3DDD4"/>
  <text x="118.0" y="334.5" text-anchor="middle" class="t-label">Tools</text>
  <line x1="200" y1="330.5" x2="1052" y2="330.5" stroke="#E3DDD4" stroke-dasharray="4 4"/>
  <rect x="212" y="298" width="261" height="65" rx="6" fill="#FFFFFF" stroke="#E3DDD4" filter="url(#shadow)"/>
  <text x="342.5" y="338.5" text-anchor="middle" class="t-body">Search</text>
  <line x1="473" y1="334.5" x2="485" y2="334.5" stroke="#1E4D6B" marker-end="url(#arrow)"/>
  <rect x="489" y="298" width="261" height="65" rx="6" fill="#FFFFFF" stroke="#E3DDD4" filter="url(#shadow)"/>
  <text x="619.5" y="338.5" text-anchor="middle" class="t-body">Code</text>
  <line x1="750" y1="334.5" x2="762" y2="334.5" stroke="#1E4D6B" marker-end="url(#arrow)"/>
  <rect x="766" y="298" width="261" height="65" rx="6" fill="#FFFFFF" stroke="#E3DDD4" filter="url(#shadow)"/>
  <text x="896.5" y="338.5" text-anchor="middle" class="t-body">CRM</text>
  <rect x="48" y="383" width="140" height="89" rx="6" fill="#D4E4ED" stroke="#E3DDD4"/>
  <text x="118.0" y="431.5" text-anchor="middle" class="t-label">Policy</text>
  <line x1="200" y1="427.5" x2="1052" y2="427.5" stroke="#E3DDD4" stroke-dasharray="4 4"/>
  <rect x="212" y="395" width="261" height="65" rx="6" fill="#FFFFFF" stroke="#E3DDD4" filter="url(#shadow)"/>
  <text x="342.5" y="435.5" text-anchor="middle" class="t-body">Allow</text>
  <line x1="473" y1="431.5" x2="485" y2="431.5" stroke="#1E4D6B" marker-end="url(#arrow)"/>
  <rect x="489" y="395" width="261" height="65" rx="6" fill="#FFFFFF" stroke="#E3DDD4" filter="url(#shadow)"/>
  <text x="619.5" y="435.5" text-anchor="middle" class="t-body">Log</text>
  <line x1="750" y1="431.5" x2="762" y2="431.5" stroke="#1E4D6B" marker-end="url(#arrow)"/>
  <rect x="766" y="395" width="261" height="65" rx="6" fill="#FFFFFF" stroke="#E3DDD4" filter="url(#shadow)"/>
  <text x="896.5" y="435.5" text-anchor="middle" class="t-body">Block</text>
  <text x="48" y="496" class="t-small">Add human-in-the-loop gates for high-risk tool calls.</text>
</svg>
